<?xml version="1.0" standalone="no"?><!DOCTYPE svg PUBLIC "-//W3C//DTD SVG 1.1//EN" "http://www.w3.org/Graphics/SVG/1.1/DTD/svg11.dtd"><svg t="1631597691507" class="icon" viewBox="0 0 1024 1024" version="1.1" xmlns="http://www.w3.org/2000/svg" p-id="4364" xmlns:xlink="http://www.w3.org/1999/xlink" width="400" height="400"><defs><style type="text/css"></style></defs><path d="M645.973333 637.44c-40.533333 0-73.386667-35.413333-73.386666-78.933333s32.853333-78.933333 73.386666-78.933334 73.386667 35.413333 73.386667 78.933334c-0.426667 43.52-33.28 78.933333-73.386667 78.933333z m-268.373333 0c-40.533333 0-73.386667-35.413333-73.386667-78.933333s32.853333-78.933333 73.386667-78.933334 73.386667 35.413333 73.386667 78.933334-32.853333 78.933333-73.386667 78.933333z m536.32-130.56c-25.6-121.173333-81.066667-223.146667-81.066667-223.146667-106.666667-79.786667-206.08-76.8-206.08-76.8l-6.4 10.666667c116.48 27.306667 189.866667 94.293333 189.866667 94.293333-95.573333-54.613333-224.853333-73.386667-298.666667-73.386666S308.48 257.28 213.333333 311.893333c0 0 73.386667-66.986667 189.866667-94.293333L396.8 206.933333s-99.84-2.986667-206.08 76.8c0 0-55.466667 102.4-81.066667 223.146667-22.186667 104.533333-23.893333 199.68-23.893333 199.68s37.973333 53.76 93.866667 80.213333c53.76 25.6 93.866667 29.866667 128 30.293334l49.92-59.733334s-83.626667-24.746667-127.573334-84.48c0 0 118.186667 81.92 282.026667 81.92s282.026667-81.92 282.026667-81.92c-43.946667 59.733333-127.573333 84.48-127.573334 84.48l49.92 59.733334c34.133333-0.426667 74.24-5.12 128-30.293334 55.893333-26.453333 93.866667-80.213333 93.866667-80.213333s-2.133333-95.146667-24.32-199.68z" p-id="4365" fill="#272727"></path></svg>